<mxfile host="app.diagrams.net" modified="2023-08-02T09:16:48.930Z" agent="Mozilla/5.0 (Windows NT 10.0; Win64; x64) AppleWebKit/537.36 (KHTML, like Gecko) Chrome/115.0.0.0 Safari/537.36" etag="QWMtHCIaWtVsS6r7H_q3" version="21.6.5" type="device">
  <diagram name="Page-1" id="b61HxnjKWp9uKTGL3CL5">
    <mxGraphModel dx="1674" dy="758" grid="1" gridSize="10" guides="1" tooltips="1" connect="1" arrows="1" fold="1" page="1" pageScale="1" pageWidth="827" pageHeight="1169" math="0" shadow="0">
      <root>
        <mxCell id="0" />
        <mxCell id="1" parent="0" />
        <mxCell id="qoYY8a1d5b-a7Hf93l6d-1" value="insert your email" style="rounded=0;whiteSpace=wrap;html=1;" vertex="1" parent="1">
          <mxGeometry x="160" y="160" width="280" height="440" as="geometry" />
        </mxCell>
        <mxCell id="qoYY8a1d5b-a7Hf93l6d-2" value="" style="rounded=1;whiteSpace=wrap;html=1;" vertex="1" parent="1">
          <mxGeometry x="247.5" y="390" width="115" height="20" as="geometry" />
        </mxCell>
        <mxCell id="qoYY8a1d5b-a7Hf93l6d-5" value="" style="rounded=0;whiteSpace=wrap;html=1;" vertex="1" parent="1">
          <mxGeometry x="490" y="160" width="280" height="440" as="geometry" />
        </mxCell>
        <mxCell id="qoYY8a1d5b-a7Hf93l6d-7" value="" style="endArrow=none;html=1;rounded=0;exitX=0.325;exitY=1.002;exitDx=0;exitDy=0;entryX=0.321;entryY=0.002;entryDx=0;entryDy=0;entryPerimeter=0;exitPerimeter=0;" edge="1" parent="1" source="qoYY8a1d5b-a7Hf93l6d-5" target="qoYY8a1d5b-a7Hf93l6d-5">
          <mxGeometry width="50" height="50" relative="1" as="geometry">
            <mxPoint x="390" y="420" as="sourcePoint" />
            <mxPoint x="440" y="370" as="targetPoint" />
            <Array as="points" />
          </mxGeometry>
        </mxCell>
        <mxCell id="qoYY8a1d5b-a7Hf93l6d-8" value="Groups" style="text;html=1;strokeColor=none;fillColor=none;align=center;verticalAlign=middle;whiteSpace=wrap;rounded=0;" vertex="1" parent="1">
          <mxGeometry x="500" y="180" width="60" height="30" as="geometry" />
        </mxCell>
        <mxCell id="qoYY8a1d5b-a7Hf93l6d-9" value="A" style="rounded=0;whiteSpace=wrap;html=1;" vertex="1" parent="1">
          <mxGeometry x="500" y="220" width="60" height="30" as="geometry" />
        </mxCell>
        <mxCell id="qoYY8a1d5b-a7Hf93l6d-10" value="B" style="rounded=0;whiteSpace=wrap;html=1;" vertex="1" parent="1">
          <mxGeometry x="500" y="260" width="60" height="30" as="geometry" />
        </mxCell>
        <mxCell id="qoYY8a1d5b-a7Hf93l6d-11" value="C" style="rounded=0;whiteSpace=wrap;html=1;" vertex="1" parent="1">
          <mxGeometry x="500" y="300" width="60" height="30" as="geometry" />
        </mxCell>
        <mxCell id="qoYY8a1d5b-a7Hf93l6d-12" value="+" style="rounded=0;whiteSpace=wrap;html=1;" vertex="1" parent="1">
          <mxGeometry x="515" y="350" width="30" height="20" as="geometry" />
        </mxCell>
      </root>
    </mxGraphModel>
  </diagram>
</mxfile>
